<svg
    width="1088"
    height="728"
    viewBox="0 0 1088 728"
    fill="none"
    xmlns="http://www.w3.org/2000/svg"
  >
    <path d="M0 8H1088" stroke="#F0F0F0" />
    <path d="M0 16H1088" stroke="#F0F0F0" />
    <path d="M0 24H1088" stroke="#F0F0F0" />
    <path d="M0 32H1088" stroke="#F0F0F0" />
    <path d="M0 40H1088" stroke="#F0F0F0" />
    <path d="M0 48H1088" stroke="#F0F0F0" />
    <path d="M0 56H1088" stroke="#F0F0F0" />
    <path d="M0 64H1088" stroke="#F0F0F0" />
    <path d="M0 72H1088" stroke="#F0F0F0" />
    <path d="M0 80H1088" stroke="#F0F0F0" />
    <path d="M0 88H1088" stroke="#F0F0F0" />
    <path d="M0 96H1088" stroke="#F0F0F0" />
    <path d="M0 104H1088" stroke="#F0F0F0" />
    <path d="M0 112H1088" stroke="#F0F0F0" />
    <path d="M0 120H1088" stroke="#F0F0F0" />
    <path d="M0 128H1088" stroke="#F0F0F0" />
    <path d="M0 136H1088" stroke="#F0F0F0" />
    <path d="M0 144H1088" stroke="#F0F0F0" />
    <path d="M0 152H1088" stroke="#F0F0F0" />
    <path d="M0 160H1088" stroke="#F0F0F0" />
    <path d="M0 168H1088" stroke="#F0F0F0" />
    <path d="M0 176H1088" stroke="#F0F0F0" />
    <path d="M0 184H1088" stroke="#F0F0F0" />
    <path d="M0 192H1088" stroke="#F0F0F0" />
    <path d="M0 200H1088" stroke="#F0F0F0" />
    <path d="M0 208H1088" stroke="#F0F0F0" />
    <path d="M0 216H1088" stroke="#F0F0F0" />
    <path d="M0 224H1088" stroke="#F0F0F0" />
    <path d="M0 232H1088" stroke="#F0F0F0" />
    <path d="M0 240H1088" stroke="#F0F0F0" />
    <path d="M0 248H1088" stroke="#F0F0F0" />
    <path d="M0 256H1088" stroke="#F0F0F0" />
    <path d="M0 264H1088" stroke="#F0F0F0" />
    <path d="M0 272H1088" stroke="#F0F0F0" />
    <path d="M0 280H1088" stroke="#F0F0F0" />
    <path d="M0 288H1088" stroke="#F0F0F0" />
    <path d="M0 296H1088" stroke="#F0F0F0" />
    <path d="M0 304H1088" stroke="#F0F0F0" />
    <path d="M0 312H1088" stroke="#F0F0F0" />
    <path d="M0 320H1088" stroke="#F0F0F0" />
    <path d="M0 328H1088" stroke="#F0F0F0" />
    <path d="M0 336H1088" stroke="#F0F0F0" />
    <path d="M0 344H1088" stroke="#F0F0F0" />
    <path d="M0 352H1088" stroke="#F0F0F0" />
    <path d="M0 360H1088" stroke="#F0F0F0" />
    <path d="M0 368H1088" stroke="#F0F0F0" />
    <path d="M0 376H1088" stroke="#F0F0F0" />
    <path d="M0 384H1088" stroke="#F0F0F0" />
    <path d="M0 392H1088" stroke="#F0F0F0" />
    <path d="M0 400H1088" stroke="#F0F0F0" />
    <path d="M0 408H1088" stroke="#F0F0F0" />
    <path d="M0 416H1088" stroke="#F0F0F0" />
    <path d="M0 424H1088" stroke="#F0F0F0" />
    <path d="M0 432H1088" stroke="#F0F0F0" />
    <path d="M0 440H1088" stroke="#F0F0F0" />
    <path d="M0 448H1088" stroke="#F0F0F0" />
    <path d="M0 456H1088" stroke="#F0F0F0" />
    <path d="M0 464H1088" stroke="#F0F0F0" />
    <path d="M0 472H1088" stroke="#F0F0F0" />
    <path d="M0 480H1088" stroke="#F0F0F0" />
    <path d="M0 488H1088" stroke="#F0F0F0" />
    <path d="M0 496H1088" stroke="#F0F0F0" />
    <path d="M0 504H1088" stroke="#F0F0F0" />
    <path d="M0 512H1088" stroke="#F0F0F0" />
    <path d="M0 520H1088" stroke="#F0F0F0" />
    <path d="M0 528H1088" stroke="#F0F0F0" />
    <path d="M0 536H1088" stroke="#F0F0F0" />
    <path d="M0 544H1088" stroke="#F0F0F0" />
    <path d="M0 552H1088" stroke="#F0F0F0" />
    <path d="M0 560H1088" stroke="#F0F0F0" />
    <path d="M0 568H1088" stroke="#F0F0F0" />
    <path d="M0 576H1088" stroke="#F0F0F0" />
    <path d="M0 584H1088" stroke="#F0F0F0" />
    <path d="M0 592H1088" stroke="#F0F0F0" />
    <path d="M0 600H1088" stroke="#F0F0F0" />
    <path d="M0 608H1088" stroke="#F0F0F0" />
    <path d="M0 616H1088" stroke="#F0F0F0" />
    <path d="M0 624H1088" stroke="#F0F0F0" />
    <path d="M0 632H1088" stroke="#F0F0F0" />
    <path d="M0 640H1088" stroke="#F0F0F0" />
    <path d="M0 648H1088" stroke="#F0F0F0" />
    <path d="M0 656H1088" stroke="#F0F0F0" />
    <path d="M0 664H1088" stroke="#F0F0F0" />
    <path d="M0 672H1088" stroke="#F0F0F0" />
    <path d="M0 680H1088" stroke="#F0F0F0" />
    <path d="M0 688H1088" stroke="#F0F0F0" />
    <path d="M0 696H1088" stroke="#F0F0F0" />
    <path d="M0 704H1088" stroke="#F0F0F0" />
    <path d="M0 712H1088" stroke="#F0F0F0" />
    <path d="M0 720H1088" stroke="#F0F0F0" />
    <path d="M8 0V728" stroke="#F0F0F0" />
    <path d="M16 0V728" stroke="#F0F0F0" />
    <path d="M24 0V728" stroke="#F0F0F0" />
    <path d="M32 0V728" stroke="#F0F0F0" />
    <path d="M40 0V728" stroke="#F0F0F0" />
    <path d="M48 0V728" stroke="#F0F0F0" />
    <path d="M56 0V728" stroke="#F0F0F0" />
    <path d="M64 0V728" stroke="#F0F0F0" />
    <path d="M72 0V728" stroke="#F0F0F0" />
    <path d="M80 0V728" stroke="#F0F0F0" />
    <path d="M88 0V728" stroke="#F0F0F0" />
    <path d="M96 0V728" stroke="#F0F0F0" />
    <path d="M104 0V728" stroke="#F0F0F0" />
    <path d="M112 0V728" stroke="#F0F0F0" />
    <path d="M120 0V728" stroke="#F0F0F0" />
    <path d="M128 0V728" stroke="#F0F0F0" />
    <path d="M136 0V728" stroke="#F0F0F0" />
    <path d="M144 0V728" stroke="#F0F0F0" />
    <path d="M152 0V728" stroke="#F0F0F0" />
    <path d="M160 0V728" stroke="#F0F0F0" />
    <path d="M168 0V728" stroke="#F0F0F0" />
    <path d="M176 0V728" stroke="#F0F0F0" />
    <path d="M184 0V728" stroke="#F0F0F0" />
    <path d="M192 0V728" stroke="#F0F0F0" />
    <path d="M200 0V728" stroke="#F0F0F0" />
    <path d="M208 0V728" stroke="#F0F0F0" />
    <path d="M216 0V728" stroke="#F0F0F0" />
    <path d="M224 0V728" stroke="#F0F0F0" />
    <path d="M232 0V728" stroke="#F0F0F0" />
    <path d="M240 0V728" stroke="#F0F0F0" />
    <path d="M248 0V728" stroke="#F0F0F0" />
    <path d="M256 0V728" stroke="#F0F0F0" />
    <path d="M264 0V728" stroke="#F0F0F0" />
    <path d="M272 0V728" stroke="#F0F0F0" />
    <path d="M280 0V728" stroke="#F0F0F0" />
    <path d="M288 0V728" stroke="#F0F0F0" />
    <path d="M296 0V728" stroke="#F0F0F0" />
    <path d="M304 0V728" stroke="#F0F0F0" />
    <path d="M312 0V728" stroke="#F0F0F0" />
    <path d="M320 0V728" stroke="#F0F0F0" />
    <path d="M328 0V728" stroke="#F0F0F0" />
    <path d="M336 0V728" stroke="#F0F0F0" />
    <path d="M344 0V728" stroke="#F0F0F0" />
    <path d="M352 0V728" stroke="#F0F0F0" />
    <path d="M360 0V728" stroke="#F0F0F0" />
    <path d="M368 0V728" stroke="#F0F0F0" />
    <path d="M376 0V728" stroke="#F0F0F0" />
    <path d="M384 0V728" stroke="#F0F0F0" />
    <path d="M392 0V728" stroke="#F0F0F0" />
    <path d="M400 0V728" stroke="#F0F0F0" />
    <path d="M408 0V728" stroke="#F0F0F0" />
    <path d="M416 0V728" stroke="#F0F0F0" />
    <path d="M424 0V728" stroke="#F0F0F0" />
    <path d="M432 0V728" stroke="#F0F0F0" />
    <path d="M440 0V728" stroke="#F0F0F0" />
    <path d="M448 0V728" stroke="#F0F0F0" />
    <path d="M456 0V728" stroke="#F0F0F0" />
    <path d="M464 0V728" stroke="#F0F0F0" />
    <path d="M472 0V728" stroke="#F0F0F0" />
    <path d="M480 0V728" stroke="#F0F0F0" />
    <path d="M488 0V728" stroke="#F0F0F0" />
    <path d="M496 0V728" stroke="#F0F0F0" />
    <path d="M504 0V728" stroke="#F0F0F0" />
    <path d="M512 0V728" stroke="#F0F0F0" />
    <path d="M520 0V728" stroke="#F0F0F0" />
    <path d="M528 0V728" stroke="#F0F0F0" />
    <path d="M536 0V728" stroke="#F0F0F0" />
    <path d="M544 0V728" stroke="#F0F0F0" />
    <path d="M552 0V728" stroke="#F0F0F0" />
    <path d="M560 0V728" stroke="#F0F0F0" />
    <path d="M568 0V728" stroke="#F0F0F0" />
    <path d="M576 0V728" stroke="#F0F0F0" />
    <path d="M584 0V728" stroke="#F0F0F0" />
    <path d="M592 0V728" stroke="#F0F0F0" />
    <path d="M600 0V728" stroke="#F0F0F0" />
    <path d="M608 0V728" stroke="#F0F0F0" />
    <path d="M616 0V728" stroke="#F0F0F0" />
    <path d="M624 0V728" stroke="#F0F0F0" />
    <path d="M632 0V728" stroke="#F0F0F0" />
    <path d="M640 0V728" stroke="#F0F0F0" />
    <path d="M648 0V728" stroke="#F0F0F0" />
    <path d="M656 0V728" stroke="#F0F0F0" />
    <path d="M664 0V728" stroke="#F0F0F0" />
    <path d="M672 0V728" stroke="#F0F0F0" />
    <path d="M680 0V728" stroke="#F0F0F0" />
    <path d="M688 0V728" stroke="#F0F0F0" />
    <path d="M696 0V728" stroke="#F0F0F0" />
    <path d="M704 0V728" stroke="#F0F0F0" />
    <path d="M712 0V728" stroke="#F0F0F0" />
    <path d="M720 0V728" stroke="#F0F0F0" />
    <path d="M728 0V728" stroke="#F0F0F0" />
    <path d="M736 0V728" stroke="#F0F0F0" />
    <path d="M744 0V728" stroke="#F0F0F0" />
    <path d="M752 0V728" stroke="#F0F0F0" />
    <path d="M760 0V728" stroke="#F0F0F0" />
    <path d="M768 0V728" stroke="#F0F0F0" />
    <path d="M776 0V728" stroke="#F0F0F0" />
    <path d="M784 0V728" stroke="#F0F0F0" />
    <path d="M792 0V728" stroke="#F0F0F0" />
    <path d="M800 0V728" stroke="#F0F0F0" />
    <path d="M808 0V728" stroke="#F0F0F0" />
    <path d="M816 0V728" stroke="#F0F0F0" />
    <path d="M824 0V728" stroke="#F0F0F0" />
    <path d="M832 0V728" stroke="#F0F0F0" />
    <path d="M840 0V728" stroke="#F0F0F0" />
    <path d="M848 0V728" stroke="#F0F0F0" />
    <path d="M856 0V728" stroke="#F0F0F0" />
    <path d="M864 0V728" stroke="#F0F0F0" />
    <path d="M872 0V728" stroke="#F0F0F0" />
    <path d="M880 0V728" stroke="#F0F0F0" />
    <path d="M888 0V728" stroke="#F0F0F0" />
    <path d="M896 0V728" stroke="#F0F0F0" />
    <path d="M904 0V728" stroke="#F0F0F0" />
    <path d="M912 0V728" stroke="#F0F0F0" />
    <path d="M920 0V728" stroke="#F0F0F0" />
    <path d="M928 0V728" stroke="#F0F0F0" />
    <path d="M936 0V728" stroke="#F0F0F0" />
    <path d="M944 0V728" stroke="#F0F0F0" />
    <path d="M952 0V728" stroke="#F0F0F0" />
    <path d="M960 0V728" stroke="#F0F0F0" />
    <path d="M968 0V728" stroke="#F0F0F0" />
    <path d="M976 0V728" stroke="#F0F0F0" />
    <path d="M984 0V728" stroke="#F0F0F0" />
    <path d="M992 0V728" stroke="#F0F0F0" />
    <path d="M1000 0V728" stroke="#F0F0F0" />
    <path d="M1008 0V728" stroke="#F0F0F0" />
    <path d="M1016 0V728" stroke="#F0F0F0" />
    <path d="M1024 0V728" stroke="#F0F0F0" />
    <path d="M1032 0V728" stroke="#F0F0F0" />
    <path d="M1040 0V728" stroke="#F0F0F0" />
    <path d="M1048 0V728" stroke="#F0F0F0" />
    <path d="M1056 0V728" stroke="#F0F0F0" />
    <path d="M1064 0V728" stroke="#F0F0F0" />
    <path d="M1072 0V728" stroke="#F0F0F0" />
    <path d="M1080 0V728" stroke="#F0F0F0" />
  </svg>