<svg width="24" height="24" viewBox="0 0 24 24" fill="none" xmlns="http://www.w3.org/2000/svg">
<path d="M3 13C3 11.8954 3.89543 11 5 11H7C8.10457 11 9 11.8954 9 13V20H4C3.44772 20 3 19.5523 3 19V13Z" stroke="#CE0E2D" stroke-width="2"/>
<path d="M9 6C9 4.89543 9.89543 4 11 4H13C14.1046 4 15 4.89543 15 6V20H9V6Z" stroke="#CE0E2D" stroke-width="2"/>
<path d="M15 10C15 8.89543 15.8954 8 17 8H19C20.1046 8 21 8.89543 21 10V19C21 19.5523 20.5523 20 20 20H15V10Z" stroke="#CE0E2D" stroke-width="2"/>
</svg>
