<svg width="16" height="17" viewBox="0 0 16 17" fill="none" xmlns="http://www.w3.org/2000/svg">
<g clip-path="url(#clip0_3249_6906)">
<path d="M12.2 4.70557C11.94 4.44557 11.52 4.44557 11.26 4.70557L7.99998 7.95891L4.73998 4.69891C4.47998 4.43891 4.05998 4.43891 3.79998 4.69891C3.53998 4.95891 3.53998 5.37891 3.79998 5.63891L7.05998 8.89891L3.79998 12.1589C3.53998 12.4189 3.53998 12.8389 3.79998 13.0989C4.05998 13.3589 4.47998 13.3589 4.73998 13.0989L7.99998 9.83891L11.26 13.0989C11.52 13.3589 11.94 13.3589 12.2 13.0989C12.46 12.8389 12.46 12.4189 12.2 12.1589L8.93998 8.89891L12.2 5.63891C12.4533 5.38557 12.4533 4.95891 12.2 4.70557Z" fill="white"/>
</g>
<defs>
<clipPath id="clip0_3249_6906">
<rect width="16" height="16" fill="white" transform="translate(0 0.898438)"/>
</clipPath>
</defs>
</svg>
